<svg xmlns="http://www.w3.org/2000/svg" width="1200" height="900" viewBox="0 0 1200 900" role="img" aria-labelledby="title">
  <title id="title">FourFeetz Works hero illustration</title>
  <defs>
    <linearGradient id="paper" x1="0" x2="1" y1="0" y2="1">
      <stop offset="0" stop-color="#fffaf2"/>
      <stop offset="1" stop-color="#ead7bf"/>
    </linearGradient>
    <linearGradient id="brown" x1="0" x2="1" y1="0" y2="1">
      <stop offset="0" stop-color="#8a6447"/>
      <stop offset="1" stop-color="#4e3525"/>
    </linearGradient>
    <filter id="shadow" x="-20%" y="-20%" width="140%" height="140%">
      <feDropShadow dx="0" dy="28" stdDeviation="26" flood-color="#6f4e37" flood-opacity=".18"/>
    </filter>
    <filter id="soft" x="-20%" y="-20%" width="140%" height="140%">
      <feDropShadow dx="0" dy="14" stdDeviation="14" flood-color="#6f4e37" flood-opacity=".12"/>
    </filter>
  </defs>
  <g fill="none" fill-rule="evenodd">
    <ellipse cx="600" cy="760" rx="360" ry="58" fill="#6f4e37" opacity=".08"/>
    
    
  <g filter="url(#shadow)">
    <rect x="448" y="344" width="228" height="250" rx="92" fill="#f8efe4"/>
    <circle cx="562" cy="306" r="112" fill="#fff8ee"/>
    <path d="M480 276c-48-62-58-118-18-157 68 22 106 65 114 130z" fill="#7a563d"/>
    <path d="M630 278c42-66 48-122 10-160-65 25-100 69-104 133z" fill="#7a563d"/>
    <circle cx="526" cy="315" r="12" fill="#2a211c"/>
    <circle cx="602" cy="315" r="12" fill="#2a211c"/>
    <path d="M556 346c16 12 31 12 46 0" stroke="#6f4e37" stroke-width="9" stroke-linecap="round"/>
    <path d="M535 380h58c18 0 32 14 32 32v45H503v-45c0-18 14-32 32-32z" fill="#6f4e37"/>
  </g>
    <rect x="696" y="300" width="248" height="152" rx="34" fill="url(#brown)" filter="url(#shadow)"/>
    <circle cx="810" cy="376" r="54" fill="#2a211c"/>
    <circle cx="810" cy="376" r="30" fill="#d8b892"/>
    <rect x="740" y="250" width="118" height="66" rx="22" fill="#6f4e37"/>
    <path d="M228 216h310v96H228z" fill="#fffdf8" filter="url(#soft)" transform="rotate(-7 383 264)"/>
    <path d="M238 220l64 88M316 214l64 88M394 208l64 88M472 202l64 88" stroke="#6f4e37" stroke-width="12"/>
    <rect x="188" y="516" width="220" height="60" rx="12" fill="#6f4e37" filter="url(#soft)"/>
    <path d="M238 516l-40-72h180l-42 72" fill="#d8b892"/>
    <circle cx="942" cy="212" r="58" fill="#f3c969" filter="url(#soft)"/>
    <path d="M920 282l-80 126" stroke="#6f4e37" stroke-width="18" stroke-linecap="round"/>
  
  </g>
</svg>
