<svg width="1200" height="750" viewBox="0 0 1200 750" fill="none" xmlns="http://www.w3.org/2000/svg">
  <rect width="1200" height="750" rx="48" fill="#F7F2EA"/>
  <rect x="72" y="72" width="1056" height="606" rx="38" fill="#FFFDF8" stroke="#EADFCC" stroke-width="2"/>
  <circle cx="968" cy="166" r="118" fill="#D8B892" opacity="0.24"/>
  <rect x="118" y="120" width="420" height="510" rx="28" fill="#2A211C"/>
  <rect x="154" y="168" width="348" height="210" rx="24" fill="#F7F2EA"/>
  <circle cx="328" cy="250" r="58" fill="#D8B892"/>
  <path d="M249 333C273 293 381 293 407 333" stroke="#6F4E37" stroke-width="16" stroke-linecap="round"/>
  <text x="154" y="440" fill="#F7F2EA" font-family="Montserrat, Arial" font-size="34" font-weight="800">HARU Reference</text>
  <text x="154" y="488" fill="#D8B892" font-family="Montserrat, Arial" font-size="20" font-weight="700" letter-spacing="4">ANGLE / STYLE / MOOD</text>
  <rect x="600" y="120" width="456" height="114" rx="24" fill="#F6EBDD" stroke="#E0CCB6"/>
  <text x="632" y="168" fill="#2A211C" font-family="Montserrat, Arial" font-size="28" font-weight="900">Prompt UI</text>
  <text x="632" y="204" fill="#76685D" font-family="Montserrat, Arial" font-size="18" font-weight="600">consistent character, same outfit, soft daylight</text>
  <rect x="600" y="270" width="208" height="132" rx="22" fill="#F2E2CF"/>
  <rect x="848" y="270" width="208" height="132" rx="22" fill="#E7D2BC"/>
  <rect x="600" y="438" width="456" height="60" rx="20" fill="#6F4E37" opacity="0.12"/>
  <rect x="600" y="524" width="456" height="60" rx="20" fill="#6F4E37" opacity="0.08"/>
  <text x="626" y="474" fill="#6F4E37" font-family="Montserrat, Arial" font-size="18" font-weight="800">Camera angle notes</text>
  <text x="626" y="560" fill="#6F4E37" font-family="Montserrat, Arial" font-size="18" font-weight="800">Palette: cream / warm brown</text>
</svg>
