<svg width="1200" height="750" viewBox="0 0 1200 750" fill="none" xmlns="http://www.w3.org/2000/svg">
  <rect width="1200" height="750" rx="48" fill="#F7F2EA"/>
  <rect x="110" y="80" width="980" height="590" rx="42" fill="#FFFDF8" stroke="#EADFCC" stroke-width="2"/>
  <text x="160" y="154" fill="#A67C52" font-family="Montserrat, Arial" font-size="18" font-weight="900" letter-spacing="5">CHECKLIST UI</text>
  <text x="160" y="210" fill="#2A211C" font-family="Montserrat, Arial" font-size="50" font-weight="900">Character Production</text>
  <g font-family="Montserrat, Arial" font-size="26" font-weight="800" fill="#2A211C">
    <rect x="164" y="292" width="872" height="64" rx="22" fill="#F7F2EA"/><circle cx="204" cy="324" r="15" fill="#6F4E37"/><path d="M196 323L202 330L214 316" stroke="#FFFDF8" stroke-width="5" stroke-linecap="round" stroke-linejoin="round"/><text x="240" y="333">Visual consistency</text>
    <rect x="164" y="384" width="872" height="64" rx="22" fill="#F7F2EA"/><circle cx="204" cy="416" r="15" fill="#6F4E37"/><path d="M196 415L202 422L214 408" stroke="#FFFDF8" stroke-width="5" stroke-linecap="round" stroke-linejoin="round"/><text x="240" y="425">Prompt version notes</text>
    <rect x="164" y="476" width="872" height="64" rx="22" fill="#F7F2EA"/><circle cx="204" cy="508" r="15" fill="#6F4E37"/><path d="M196 507L202 514L214 500" stroke="#FFFDF8" stroke-width="5" stroke-linecap="round" stroke-linejoin="round"/><text x="240" y="517">Voice, music, motion</text>
  </g>
</svg>
